<mxfile host="app.diagrams.net" modified="2021-05-09T17:16:38.529Z" agent="5.0 (Windows NT 10.0; Win64; x64) AppleWebKit/537.36 (KHTML, like Gecko) Chrome/90.0.4430.93 Safari/537.36 Edg/90.0.818.56" etag="eMlTS1oEbWd73TkXo7Ri" version="14.6.11" type="github">
  <diagram id="7Y4ACHJVqqhryoMFIOpM" name="第 1 页">
    <mxGraphModel dx="463" dy="280" grid="0" gridSize="10" guides="1" tooltips="1" connect="1" arrows="1" fold="1" page="1" pageScale="1" pageWidth="1169" pageHeight="827" background="none" math="0" shadow="0">
      <root>
        <mxCell id="0" />
        <mxCell id="1" parent="0" />
        <mxCell id="wrDUq9keBcSm02boVZTw-16" value="" style="shape=parallelogram;perimeter=parallelogramPerimeter;whiteSpace=wrap;html=1;fixedSize=1;shadow=1;direction=south;flipH=1;" parent="1" vertex="1">
          <mxGeometry x="516.5" y="32.5" width="80" height="120" as="geometry" />
        </mxCell>
        <mxCell id="wrDUq9keBcSm02boVZTw-8" value="" style="html=1;shadow=0;dashed=0;align=center;verticalAlign=middle;shape=mxgraph.arrows2.arrow;dy=0.67;dx=20;notch=0;" parent="1" vertex="1">
          <mxGeometry x="203" y="294" width="100" height="60" as="geometry" />
        </mxCell>
        <mxCell id="wrDUq9keBcSm02boVZTw-9" value="&lt;font style=&quot;font-size: 30px&quot;&gt;&lt;b&gt;Generator&lt;/b&gt;&lt;br&gt;&lt;/font&gt;" style="whiteSpace=wrap;html=1;aspect=fixed;fillColor=#dae8fc;strokeColor=#6c8ebf;" parent="1" vertex="1">
          <mxGeometry x="307" y="222.5" width="200" height="200" as="geometry" />
        </mxCell>
        <mxCell id="wrDUq9keBcSm02boVZTw-10" value="" style="shape=image;verticalLabelPosition=bottom;labelBackgroundColor=#ffffff;verticalAlign=top;aspect=fixed;imageAspect=0;image=data:image/png,iVBORw0KGgoAAAANSUhEUgAAAGQAAABkCAIAAAD/gAIDAAAAAXNSR0IArs4c6QAAAARnQU1BAACxjwv8YQUAAAAJcEhZcwAAEnQAABJ0Ad5mH3gAAAMsSURBVHhe7dshs9pAGIVhJBKJRCKRkUgkEolEInFIJBKJRCKRSGQkPwGJvJJ7hnyT2YaUm9Ohu1/a86oSIjrP7G6WJLfzUI0TFpGwiIRFJCwiYREJi0hYRMIiEhaRsIiERSQsImERCYtIWETCIhIWkbCIhEUkLCJhEQmLSFhEwiISFpGwiIRFJCyi2Fin02kwGHSC8HG5XN5uNzvDcbGx+v2+If1at9tdLBbn89nOc1lsLKAYz2+CptuBFhtrs9lABIPIPj8ex+NxNBoVUmUwXa1WX19fdpKPvCzweZ5jQFWWs+FweLlc7AwHecEqex1ofmalO6yi/X7f6/VM6zkrMX/tu3Q5xUIYTZPJxLSerddr+y5RfrGKsJnIssy0nleGhFPSOxbCNTEcYgmnZAuwELym06lpPb2wqNl3EWsHVhEulOWeFv+woxFrExYq9rRFdihiLcNCRiWsJhmVsJpkVMJqklEJq0lGJawmGZWwmmRUwvoxbNyNSljv2+125vTMjkasNVj3+z182BHemI6WdyzMu8q9ZpTq3rxfrDzP5/O58QRNJhM7I3rusGqfXBThYJI7M2VesLAkrdfrWiMMJSfPxFxgHY/H8PFEEZZzb8+o02NVHuQ4NCpLjFXZOqVdkn4sMVbyrRNVSqzwt4u31xpqS4aFa585PbOjvkvzv6xI+Z+ARbGxKm/++dlDNSk2Vriit0sKxcYyp05nNpu1Swolw7LPrSoZFsLihfGFfen1erWvfRcbq3xZoVLxK8e5Wmys8GWF2rIsw2bV53KWcu3I83y73U6n09dbDjjicIZ6WWgvl8t8Pq+dpJihTuC8YBXd73egDIdDc3oJcNid4QcANrfx35f0hVX2ZoaGwW48Hq9WKyyF5/P5bw89p1hhDeHKMDCL0Xc4HD77NwctwAoDHK6Vy+USA8psGgS+j9x9bRlWJdiBAHMQMxF8bxa71/7gWVG7sWrDyoXlH9MQ19DwHfrX2Ld4/0Gs1zAAa59FsvfR/gusTyUsImERCYtIWETCIhIWkbCIhEUkLCJhEQmLSFhEwiISFpGwiIRFJCwiYREJi0hYjXs8vgEwQLT5Xi0DMgAAAABJRU5ErkJggg==;labelBorderColor=none;" parent="1" vertex="1">
          <mxGeometry x="521.5" y="52.5" width="75" height="75" as="geometry" />
        </mxCell>
        <mxCell id="wrDUq9keBcSm02boVZTw-17" value="" style="shape=parallelogram;perimeter=parallelogramPerimeter;whiteSpace=wrap;html=1;fixedSize=1;shadow=1;direction=south;flipH=1;" parent="1" vertex="1">
          <mxGeometry x="566.5" y="32.5" width="80" height="120" as="geometry" />
        </mxCell>
        <mxCell id="wrDUq9keBcSm02boVZTw-11" value="" style="shape=image;verticalLabelPosition=bottom;labelBackgroundColor=#ffffff;verticalAlign=top;aspect=fixed;imageAspect=0;image=data:image/png,iVBORw0KGgoAAAANSUhEUgAAAGQAAABkCAIAAAD/gAIDAAAAAXNSR0IArs4c6QAAAARnQU1BAACxjwv8YQUAAAAJcEhZcwAAEnQAABJ0Ad5mH3gAAAODSURBVHhe7ZyhdupAEIbTq4KrRIJD0jeoRNI3qKyEJ+CgsLjKnqpKJDhkJX0D6sCBA8f9Dzs3JycFLgNhdqZnPtOw2ybZj93tbHbgbrfbJc55/KGfzhm4LAYui4HLYuCyGLgsBi6Lgcti4LIYuCwGLouBy2Lgshi4LAYui4HLYuCyGLgsBi6Lgcti4LIYuCwGLouBy2Lgshi4LAYSsiaTSb1ev7sanKTb7S6XSzqvPLvbU6vV6GJlkKbpYDCgU8siIQtto4aWB96A19dXuoAUErLKYjQaNZtNsrWn1+tRnQiWZIHNZvP8/Eyq9kgOSZP5Wdvt9unpCf83cIwpDAZD+a2xmswGX5VKJRyLNcFw5h+CiXAg1gQPShlYlRUlNDUpa71eI5QPx4Vg4rZgwNsCsej9/T3dfZIg+KKK22NMFqJQkrSn1WpRhQiWZOVNYbnz9vZGFVKYkZU3hQ6FQJQqBLEhS4MpYECWElNAuyw9poBqWapMAaWyVqtVp9MhTzpMAY2yCmGnElNAl6xChwJ6TAEVssbj8c9NjShh52kiyDqopoCqDpURQVa1WiUlR4i10/VfIshK05SsHAG/gJlrsVjQH6ghgqwztxGhzOesU/zcGZzNZlSnAF2yAlDWaDSCrHa7TaUK0CgLoEMFWQCLHiqNjVJZIL/zjPnelzungB1EW2QrSTAwPz8/qS4SemUB+MKcRbb2xA0pVMsKIIDIr6t/eX7W9aA35YckmE6nVCeIDVkBCMqiMKwu5ad8S7IAulg2JF9eXqhUCmOyAKawIAsIx/f2ZIFs/hKO703Kysf3kp3LZBYNpvks/ur3++FAApJmjSiLR6uyQH7xKDMYDctCnPX4+Bhkycz0tr968+vr6+HhIRwLNMT895RK5ix7tjIDl8XAZTFwWQxcFgOrshA0dLvder1Or0UwFjqs1+vhcPj+/v79/U1F/5BoCK5xAePxGNGz5PY6FjSdTif/MD6PzIPAC2WFTJg0Ten1zQiOfqYo4QYgSPhJ/IWyskwYNKP0D3bP5/OPjw+4OJjGhcJYCSMXysK7Tfe+pxRlxzpRIEpXKnChLKz4Cx/sBmcqOy2lgAZHGRfKChxUdj0Y461WazAYRN+vL3CVrEBZylR1ooOUICtwvjL9Uo5h/nmWJL42ZOCyGLgsBi6Lgcti4LIYuCwGLouBy2Lgshi4rLNJkr/PBTfGI1/icAAAAABJRU5ErkJggg==;rotation=0;shadow=1;noLabel=0;resizeWidth=0;" parent="1" vertex="1">
          <mxGeometry x="571.5" y="55" width="75" height="75" as="geometry" />
        </mxCell>
        <mxCell id="wrDUq9keBcSm02boVZTw-20" value="" style="shape=parallelogram;perimeter=parallelogramPerimeter;whiteSpace=wrap;html=1;fixedSize=1;shadow=1;direction=south;flipH=1;" parent="1" vertex="1">
          <mxGeometry x="616.5" y="30" width="80" height="120" as="geometry" />
        </mxCell>
        <mxCell id="wrDUq9keBcSm02boVZTw-12" value="" style="shape=image;verticalLabelPosition=bottom;labelBackgroundColor=#ffffff;verticalAlign=top;aspect=fixed;imageAspect=0;image=data:image/png,iVBORw0KGgoAAAANSUhEUgAAAGQAAABkCAIAAAD/gAIDAAAAAXNSR0IArs4c6QAAAARnQU1BAACxjwv8YQUAAAAJcEhZcwAAEnQAABJ0Ad5mH3gAAAOjSURBVHhe7Zsht+IwEEYjkUgkEolEIpFIJBKJxCGRSCQSiUQikUh+ArISyft25zs5PWUf7bAMkDJX7aRt5uWedhLSbrg6lXFZClyWApelwGUpcFkKXJYCl6XAZSlwWQpclgKXpcBlKXBZClyWApeloA6ydrtdv99fr9eMzaiDrFarFUJoNBqMzaiDLJgSGJuRgKzSp4yqXBYofcrEFGBsRgKyaOJ3FzzssubzOU24rDtkWTadTqkhhNFoxAM38IyvlbXdbpvNJh2EMBgMLpcLj93Ak75T1vl8RjmngDJTgOd9p6zhcCiDxzxYZV0uJwPGZnycLKyqOPQQDocDW+/Cs79NFh63TqcjIx+Px2wtQ84HjM34LFlx+kN1R+ViaxlyCWBsxqfIOp1OvV6Pgw5huVzyQAV4zZfIQhUvTH88UA1e9g2y8gsF/GOxWPBAZeRawNiM98uKCwWUdjyMbNUglwPGZrxZ1gMLhVt4fb1lPbZQuEV6AIzNeKes2Wwmg1QtFG6RTgBjM94jK8uyWKqAaqFwC3uppSzUpna7zfGFgOUVDzwKO6qfLNxE+SUVStX9HYUqsK+aycpve0LZs970scc6ycqb6na7jy2p/gk7rY2svKnSzTwt7LceslCnOBoDU4Bd10DW8XiMFd3CFJDOAWMzbBNADcqTjARLBAtTQPoHjM2wTRDX6Li5nljRC0gKwNgMwwT5ov7Axkt1mCNdWYXpj602ME2isqynvwLMlKKsF0x/BSQXYGzGkxO8ZvorIOkAYzOenOA1018ByQgYm/G0BLvdLr/xYjr9FWDKhGTJ93mC9fRXgFkTkhWLeqfTeU2pikhewNiMpyXIf3g2Ho/3+z0P2MOsCcnC3YSnj3/1X/BgDodDrE4hLssynmcA8yUkC8BX/jVEAZT/fr+P6RK1H/p88+8PWJTikczPjHeIlS4NOEQDcO9sNhvcSrihEpPyGxyZPbjj8PThGRR98V10SnAoyRK/lvj/94+lJC8r7nBMJhM2mZG8LKzpRNZqtWKTGcnLipscD3+xVJ3kZcV51nTdK6QtCzOsmMLcyiZL0paFdZzIwi8HNlmStqy414hfoGyyJG1Z8af7drtlkyVpy4r/ze41W9hpyxJTgLExLkuBy1LgshS4LAUuS4HLUuCyFLgsBS5LgctS4LIUuCwFLkuBy1LgshS4LAUuS4HLUuCyFLgsBS5LgctS4LIUuCwFLkuBy1KQtqz4JRtjU67XH216lws0cR6yAAAAAElFTkSuQmCC;" parent="1" vertex="1">
          <mxGeometry x="621.5" y="55" width="75" height="75" as="geometry" />
        </mxCell>
        <mxCell id="wrDUq9keBcSm02boVZTw-21" value="" style="html=1;shadow=0;dashed=0;align=center;verticalAlign=middle;shape=mxgraph.arrows2.arrow;dy=0.67;dx=20;notch=0;" parent="1" vertex="1">
          <mxGeometry x="514" y="294" width="100" height="60" as="geometry" />
        </mxCell>
        <mxCell id="wrDUq9keBcSm02boVZTw-22" value="" style="shape=parallelogram;perimeter=parallelogramPerimeter;whiteSpace=wrap;html=1;fixedSize=1;shadow=1;direction=south;flipH=1;" parent="1" vertex="1">
          <mxGeometry x="616.5" y="245" width="80" height="120" as="geometry" />
        </mxCell>
        <mxCell id="wrDUq9keBcSm02boVZTw-23" value="" style="shape=image;verticalLabelPosition=bottom;labelBackgroundColor=#ffffff;verticalAlign=top;aspect=fixed;imageAspect=0;image=data:image/png,iVBORw0KGgoAAAANSUhEUgAAAGQAAABkCAIAAAD/gAIDAAAAAXNSR0IArs4c6QAAAARnQU1BAACxjwv8YQUAAAAJcEhZcwAAEnQAABJ0Ad5mH3gAAATeSURBVHhe7Z2tW+NAEIfTU0hkJTgksrISiaxEIitx4IpDIgGFRCLB8aCo408ABw5Zfted22du05YMmf1InnnFXZO2m+zb2cmku8BgsVhURjP+0P9GA0yWAJMlwGQJMFkCTJYAkyXAZAkwWQJMlgCTJcBkCTBZAkyWAJMlwGQJMFkCTJYAkyXAZAkwWQJMlgCTJSCbrM/Pz7Ozs93d3QEDm9fX1/SKAlkk5+Pj4/T0dHt7m87gf7a2tuh15ZF0Rno+n9/c3CB2EFa0axUpT0nGUll0Li8vd3Z26JD/wJ6rqyt6xWIxm82w8/j4mLbLI4UsDDpnxxNo6grRZZ2cnJChqhoOhwich4cHeq5rRJT1+vo6Go3IU1UdHBx8fX3Rc90klqyLiwtc18hTL0yBKLJ4koIyZG56ouPoy+KmMAwxGOmJ7qMsi5vqx9DjaMoq0NT9/f14PEaVR9vtUJOFEyJPZZhCHcfLYJW8qSYLNZQ7reymcO85nU7dyXhUbjl1ZPGwymsK427lLTo+QnpFC3Rk+bCaTCa0Kwdvb29RizsdWXR2ucMK91LuNPDhxbj3VJZF2zng1+K7uzvaq4pC93jCol1pCTK6SnpaSdvu8TSRJWHho+IZPeq1uK0s/5Hu7++nT1h86IHYVUtbWf46GClNrCMYemm+TWwri042Ybaqz3fEDihPl2StnBZKZgp0Q9ZKTem/yO+ArOB6B3LNd7TtpK8bXl5eaJceCCiUI659R95pobayfGcODw9plxKwv7e35xoHeTU52spCl6g3VYW0QntbM5vN+C3x0dFR+iKujkKuQU+oT8v5ZNT09MSveHp6Qn1LzVUVslX2gPIoyMJnjus3da7FdA4sc+8A1oqa71CQBeALOYu6uEQ07VyvDPC4wAk0HVkO3PH4lIx83CTLrCygcNFoOZYjoSkLoJO+5xibmwcRYifQBNclr4RQlgWQj6nrS0ajEfYEURYsgwAlVAY/oi8LBHkaIIKm06kbXMEyCERT+ZocUWQBVABQxqUAbKpcN3MRS5YD+Rt3drwQ93RxGURcWR5cKINcjrDq3MK2RLJQH5CkGsPh0Kezwkkhi6+URM66vb3lNzR1cGXE4KU3l0RcWUGJwL/VxB04Agpe6LkairflWkSU1XClJNLZukArLcRiyeJJSlQiQCgvL0A5IRZFFjf1ixIBvoKytpByTF8WN7Vu6DWBhxhik/ZmRVmWlikH3u6zXgnBpSkLydh1DLQ35fDTziUEl5osVJU+CrRMAR5c2TO9miwfAuorRHzLIO83OWqy4q0QgXqf6QECLZcvNVnUlThT0/DFi4lc+asbshy4INIxkqxDqaP2Y7+DwcA90GpwJWmOsg61n77316zz83P3oIf8DS8N0hRE7hCAttOidtQ0BZFrH9B2WjSPyguiSL6o9R7ICgqiGCu2qOkeyALwNR6PXX/UV2wB1zKg7bToH5Wv2FK/O6F2eyMLxKu2qdE+yQruThS/SqcW+yTLwS+OAMqwp+X8ILXVP1lBfAX8zh29uX+yHJuVIaNNJhMM0oaTGvS2vsrybJgfdAwb/FofemnvZQX86G4z1EpaMv+tsPl8/vj4+Pz8jH/f399pbwPynPZSWRH8uPrBg9FK70mL/RU6AfZ7SgWYLAEmS4DJEmCyGlNV34z6OBxkia/zAAAAAElFTkSuQmCC;" parent="1" vertex="1">
          <mxGeometry x="621.5" y="265" width="75" height="75" as="geometry" />
        </mxCell>
        <mxCell id="wrDUq9keBcSm02boVZTw-25" value="&lt;font style=&quot;font-size: 30px&quot;&gt;&lt;b&gt;Discriminator&lt;/b&gt;&lt;br&gt;&lt;/font&gt;" style="whiteSpace=wrap;html=1;aspect=fixed;fillColor=#f8cecc;strokeColor=#b85450;" parent="1" vertex="1">
          <mxGeometry x="842" y="104" width="200" height="200" as="geometry" />
        </mxCell>
        <mxCell id="wrDUq9keBcSm02boVZTw-29" value="" style="strokeWidth=2;html=1;shape=mxgraph.flowchart.annotation_2;align=left;labelPosition=right;pointerEvents=1;shadow=0;labelBackgroundColor=#ffffff;" parent="1" vertex="1">
          <mxGeometry x="1042" y="155" width="50" height="100" as="geometry" />
        </mxCell>
        <mxCell id="wrDUq9keBcSm02boVZTw-30" value="&lt;font style=&quot;font-size: 30px&quot; color=&quot;#94aed5&quot;&gt;&lt;b&gt;Real&lt;/b&gt;&lt;/font&gt;" style="text;html=1;strokeColor=#6c8ebf;fillColor=#dae8fc;align=center;verticalAlign=middle;whiteSpace=wrap;rounded=0;shadow=1;labelBackgroundColor=#ffffff;" parent="1" vertex="1">
          <mxGeometry x="1109" y="145" width="40" height="20" as="geometry" />
        </mxCell>
        <mxCell id="wrDUq9keBcSm02boVZTw-31" value="&lt;font style=&quot;font-size: 30px&quot; color=&quot;#d78f8c&quot;&gt;&lt;b&gt;Fake&lt;/b&gt;&lt;/font&gt;" style="text;html=1;strokeColor=none;fillColor=none;align=center;verticalAlign=middle;whiteSpace=wrap;rounded=0;shadow=1;labelBackgroundColor=#ffffff;" parent="1" vertex="1">
          <mxGeometry x="1109" y="248" width="40" height="20" as="geometry" />
        </mxCell>
        <mxCell id="wrDUq9keBcSm02boVZTw-35" value="&lt;span style=&quot;font-size: 30px&quot;&gt;Trainging Images&lt;/span&gt;" style="text;html=1;strokeColor=none;fillColor=none;align=center;verticalAlign=middle;whiteSpace=wrap;rounded=0;shadow=1;labelBackgroundColor=none;" parent="1" vertex="1">
          <mxGeometry x="367.5" y="68.5" width="149" height="59" as="geometry" />
        </mxCell>
        <mxCell id="wrDUq9keBcSm02boVZTw-37" value="&lt;span style=&quot;font-size: 30px&quot;&gt;Fake Image&lt;br&gt;&lt;/span&gt;" style="text;html=1;strokeColor=none;fillColor=none;align=center;verticalAlign=middle;whiteSpace=wrap;rounded=0;shadow=1;labelBackgroundColor=none;" parent="1" vertex="1">
          <mxGeometry x="496" y="228.5" width="149" height="59" as="geometry" />
        </mxCell>
        <mxCell id="9gpe9vuKUnpZQJcM8tMO-1" value="" style="shape=partialRectangle;whiteSpace=wrap;html=1;bottom=1;right=1;left=1;top=0;fillColor=none;routingCenterX=-0.5;shadow=0;labelBackgroundColor=none;direction=north;strokeColor=#009900;fontStyle=1;strokeWidth=3;" vertex="1" parent="1">
          <mxGeometry x="134" y="265" width="60" height="120" as="geometry" />
        </mxCell>
        <mxCell id="9gpe9vuKUnpZQJcM8tMO-3" value="" style="group" vertex="1" connectable="0" parent="1">
          <mxGeometry x="34" y="185" width="100" height="130" as="geometry" />
        </mxCell>
        <mxCell id="wrDUq9keBcSm02boVZTw-4" value="" style="shape=image;verticalLabelPosition=bottom;labelBackgroundColor=#ffffff;verticalAlign=top;aspect=fixed;imageAspect=0;image=data:image/jpeg,/9j/4AAQSkZJRgABAQAAAQABAAD/2wBDAAgGBgcGBQgHBwcJCQgKDBQNDAsLDBkSEw8UHRofHh0aHBwgJC4nICIsIxwcKDcpLDAxNDQ0Hyc5PTgyPC4zNDL/wAALCABkAGQBAREA/8QAHwAAAQUBAQEBAQEAAAAAAAAAAAECAwQFBgcICQoL/8QAtRAAAgEDAwIEAwUFBAQAAAF9AQIDAAQRBRIhMUEGE1FhByJxFDKBkaEII0KxwRVS0fAkM2JyggkKFhcYGRolJicoKSo0NTY3ODk6Q0RFRkdISUpTVFVWV1hZWmNkZWZnaGlqc3R1dnd4eXqDhIWGh4iJipKTlJWWl5iZmqKjpKWmp6ipqrKztLW2t7i5usLDxMXGx8jJytLT1NXW19jZ2uHi4+Tl5ufo6erx8vP09fb3+Pn6/9oACAEBAAA/AIItLhtdPj/tCe8WJppbuGU/69SrszSA7SoAKeYSpOFLBWbzMPvWJhhDy3eoXgRLnyo7gwgeZM+EZQUdgS0luXwAgBfaWILK2JcXubCW4jUxafMyJeybxDKIlWEBnYZCEkwkgB2IEgAjKvuVEtzZyz32kpFa6kw+zzSxK0cTlhslkO4S5L7WIbPyyZJwdlR2VrFbave3kUgkkjkaJxKUXL5DjbKQNjszFtvJBG3aFjDGhdtM2rWb208ksslvGY2uYy1zpqlBs2Kcg5J2EYw3BwodWNrWNWe23LYw3X2qZrhUN3cGKaX7rONwYESRymQqWAHBVSSRVq90qJhcGSzvlm1CHzbS8tyl5cTxbpCGCoCTgmF+DtUIh3q5BKXl28fiO4nis7e7vpsE3QC5uE8p8lJGOCG6AIS2VZdygDMKXsuiS5jaa32SLLOi3AnjlSS3RZcyJtZchMs6pJtZcqFwwF2I2mlD7PDJpcUKgNbSZxFb3LlxvYK5ZFCznqXTKjawJGW21+YkkN7FbWtyXZkZpTDJayIRCiNgmQ5CLnYQUDNk87zWgTxHrAkk0++t7ZIJGhmtksbYiGUcuPmU4yTvwCcb+Tu3VbtLvUbG8s44k0y2Vny9rcP5AWMZ2vECG2hQC2I2Yxu54+bbUcEN02nWF1b3MdtcNJNKYLTeZLiV5JVjdXnyQrZkC5UsCd2G522XtMy3+lTabJd2SxtdLOl+ZgsywjOMJt3YwBvVeWwcZUVVu4IbTWILiW1umhW1aKRbiDLANMJG+aQkGNdzAhPnUgDOehqqTWcU9xBNfM14LWNraSDcMgosss8fO05iXDRkDIC4yGIpWdrbHTbC/vbdNbgEH7l5ZGeecGURlSCMR4klA5J4UrkjBFu0gWW2uLy5GpDynECTXrYmWYKS67+XiDO8p5XG1ju5cbNHSDcXdrJFLeXc80Uf2a3iaCNZLePy/NIjVpD5YVWVS7sSSIxuUgFsePXL21mOpz2ksSW4WeIHUI5EmSViud+0ggIVjAXODuKrkkizpctxcWd/I8sEkF1cwmQ6ZO8QdlhDIo5ARZB2OVBIXAOAtq4lge0hgONXFvbMfNgu2mknmaHaHiDqzbRIAPVNysRtCkQy3RtLNr2V4vt0ZaYPGWaGQGQ7x5RyzMqxbUYsocKOSQQentNW0bTGms7m5uLW4iMfmxm7khbcYYz82377c8uQp4wQMVz+sJbaTcW86faLOzaVYJzeOVnkKsjtKVJxne2eQOWUjcrFGyIoxZ2185iiuLmaSR7lzP8AI4WR/MkCghVUMXKMDyNxK/IxF7Tomj1Am3vwqbo1iu0nML3O8BAzqEdJnEytgliWbdjPBE7vqMrwWmnm5toYx9mMt3bz71V5B8wVmJ3EkSDcBvGRnMZ21ZdMvV0TTvMvp7p5Y47YLHdBoJBzIoLSQOWUh2Xn7m2MNngiBL157Gx0uJ57J8hlVZJ5LdCzLFviZZM+WQrAckYZsAdatEiz0n7Lq1pDd7rm1tzZNH5bOyLsz5Q4JAZRuZgGVUBCAqzO8PwXWmH7an7meR5bazhNozxkyTAImZGDMxAztyfLC7mGd27ItdNgvwLjfNeRWlobp7u5jSWWSEIZVhmUS7SuW+82DwAdoCGujltbuFLmDRZrm8JmuCsLl1lLIWUyAiQHh2ic/Lvyny4AQLTijbTrdJfsSO9qrWsMVw0ThTEFeViF2h5k8uMLtfJ8rkoBxQ1O+0vRtXnuxeyJNJcCKRgqSOSDIkhDSKgRH2kkKcBwD8o25kktbeGR0uLBp5Q7FgkMF0sZLE4WS5hd2BzuBBwd2epYmS0tLMTWdhcRPazwRXH2aLc0kcrpt2OWDRhpQpJUAbiNpLgcAvZX0/TYPJuktWEKefA8ySSSSFkCSxRrwzcKULP8xTOWBdm0be3htrMPcPHILWDyzfPZT+XBGDhFVjlHDtIfkUjaCyZZMCodOu54dPit9SkgR7Vrh0Ni6p9mkKOPMMccWVKnaoO0hmlDKX+RaqnSb4wPBqFpHf6XLJIXYY8zc4ErTo+Jd2FkkTqRld3ykbg9LiHULO9vI7cvGTGYJNQ8u5vPMbBV1+dWG6MIwz8u1STwvzSQac9tPcGHy5IDHGbC5iMVz5ZZw0aR4k3KA7CNQq4LrE5C4JK3l1qQ1rTbWazt0uTEI7gxbgkxRHVIRIqyJsPzDaeS8TgKvG7QsbWzhitop7f7M6yHyJWtER/NfDOQGJVkZpPlEe4gMBldgasm81CNJorNtTfWri8SK1yk6SScSGXzImcujJtLK24HBAxwGJaZtSsSLe0sryOW0Bu5YJptoCtsGBJvjYKCJGySCNjCTO7C2L+y0eLWXtJ7iea5SeTYWu5FhgLjfKCxRcoAolO0qPn2sR95ktPBmhXkC/8ACRW2iWmoQhYyjvNbsU2hlLKpVcgNtJXcPl+8exoby+bGt9bHUbVIIhsNmsclvArHY2C4CIv71csQQSCu5V4p6bHFa2sozqGmToQsTWMKeSluNros6o25BgszLMSSqP8AMCzEz2f2cSatrF5qP2zUeUmCXIgwRLlo4mT5i4CFg4VV7nC1U1GwuIYpNNtN95dzOYn8vC72ijVY08pGYBUAjYFgc7sh4y21rd2tjp2j3u2KW5+0SwYnco1zcS7WEqq0bMMMism4E4Ms2A2QKT7Hbtp09veadZ3Nwlylm077lew6iISPHgKp3MgZVwg8vlgFAn+3XWj3jjULWOzK22+KO4gSSEvG7MwQAPsALTKQCzKshb5VG1YItfsNTsdVSOGCx1W4CpKb9meP94z5TdklAA5VuVAkdVPJYmTxK15BrETy3GTapJcQGVSxii/dYkcfeLqsRfoSGIIw2CE1S01ieP8Atyzn+0RXULArdxpKzkOsSsEZVAztQ5yQxCZVQ2BYtL2HTNWv9QjvA7yXcbGW0hCBUkfeGXkqd6Mqkk55TJ7Gvd6NDa38l7o93aKtvELSWKVkaOTKO7mQksZG+RyRjIYDDfIVGHd6d4m1m9lfStRmjt7fZAQt+yZIRWzgSMMkMCcE8nkscs2nc3cY1OOCXUYJInuVne9it/sjMWcsJNzr8pCF1VFJJKE5ZyEp+nul5NJHem8v/PZBHcC2DLKzTJE/2iFCB5gKkZJyVYbtwwoZa6lB4ttFWSBpNRuAqh4lkMvzbQ8oWJmAVSr70+XcGUjZwKvatqUFhoP2O0sLm2dbRpLh0dAtuwSS2YKijgAtv8wjI3IGI+VBnWER0+N7WS1sUguLia4+yNOkZjZEClRBKyPndFgf7BP3CQwq6pbWltdrayWCKGiKRKu2UExoVky7PkROdwwJAQFbKAqGrf8AEWnJZW9zI6SfZ7KDb80jSNFCcxptWRkGGjeQMilsNtTPIUUdQhFz4tSyuVhmukuRDJCRJHGCiKIF+UBFjO5wq785mUNv2Yrc1S1t7e0udW+0rfWrwiQF1aVmty+Mu7IzOm3944GQmBtTIDDBKvfS20sdrIIorof6asPmNdTHckXlfL5YKYU7Qf3eHUdxVrT9bs73V4p7eCy1G6JhlKwW7eZIIiqoqI65QkGZvu4AKksvMlW1ntrWG/v9Q0Y6R9o3rcefGoa5VdzyLFIEOQYklI453R4k4G3Dkzazyw6rHHdyo5WOWSNZCyg4zveDLZYMdwABznqTXQw6hax28VppsjxXMFwj6hPFtKxPGmHG5h1ZA2ZCysCwLbdr7cgy/YpP7JmlMNrHEiRyXawTwwTRkrti+Uh/nmCsUjDjA3AZ3Eutb0uwmUnKPYv5f2i2u2V1iV4x5UiMCzZYrulKhWRuCcCOo9JuLTVJmGlW9gs9/Etq6R6Ywg8xi2xgPl2lYoX3YJ+7lASzUtndzvpNvqN7Z3FvbWRKwoI23TJMNwIkxkoVC7mGwAR7Qp3BaWeGSfSJwl3cXmio/ltLEYoIbYlBLlXDkhCTEMc7EBQNubbV2Dw7Y6JLa6hcXOnzmYPbxyJcMUvrgFsZXAVWO1SR5hXchByeViu1sn06KazQqZFaOQakm9LacIytuB4O5pSSiJhip27wvltUs70Wt0CXktbnT4omCyyFoZLgQSPvBXJJIVyxY/MjlQAyKxs6bGyTy+feJdaWltLJMY5RKkLFYkQRpuzHIQuQR90TFVCgE1BbSRzWht11mVyZI55EV2WF4VR1dUYOBs2RuSw2/K4QgkIlO1Kz2ytNDFLpV3FcNJNHA8NskSl8MS0pJQMifKCAArjghtr27bx1qulQJDZLqWoKyIzT6fbRvCfkCptDEsh8tUJVsHJJwMiqdtbWc+oFXmAu1mlkma1uJI7i5kXc7rv+7tClGO5Vy3ysyBACzXbqy0UaHLeQYtIreHYZVHno8Un73CtgByUQAknKqU+lyxe5gsjPNq97a2yiI25ikUoVjDbVXzWYfKCQ8S7i+1SARybGx7W21C0hk06xWCYXT3TXDwZL8OW3ggyqC427iAzA/IyjdS1See5htLm4tLW0n2m2itbCR973bxtuEoL+Uqh5gSr7i5L5+VmBms5Y7K+kl0yLTbD7a2wtJF5rrGs7qFyj4ZnVDj7zO4Y7iAjBmqWOsazp5eC0vVv7maERSozBpEADx7l+XaMq7FmKlGYgE5faxEENol9a6dZme4UOkreU3leSPkjilYvmREiccgEP8xLKAKfa2kl80AS1vReamZZY5lbA35XE7MGl8vayKjKQp+YFssFxW8+G7vLu8vdFt9UunbdEzXieU6q+9CU+ZEKxO4JYsqkgHAcEzacGk1C6kja6lt7Xclx/pLCR22YA8najbguSrEjeXIz5jnFa48QrrEV3ILe1ubVUEk1xFLuExBVcykjchO8gYVJFCY38ZXVs9RtrbT7XyY4I/NiEjNqN35TyZ6Mod1JTaFAxkAqQCduazo7mVGvNUuCJpmt4p0SW3RpkjkG0M07oUAYvyqjk54ClgZrO6nsLy31YzWzXt7JGsVtLH87zKqqHYyNtDoLhlCBkVgAPl7SBLrVRLLZXNxbW0JkVXhlLSxBtzSOFXezESA4cuAVCjJ6q7SzdWN6Lq6RlsVgvLueWG7mZpEdR8jb4wU/e+YcfIcjHLL89eG5tdaSS5vbW1mkjl897iO5BCZlKx5VtgXaFUOp2MEAIIHyCXTZNNjimu7XUHaNEF4Xurpe0vlhnyiqjtG5iOGw2WB3FCKdHNLNNqH2yMWpgtBGZXtysEyLBlcAFZVAMjSMrb9oHO1lVqrW2nafYCHURJYSp5LqjQXQgjkYLJC3knPOH2fMp6GDhdpJvXt/Be2m64s5nS3jCxyzIzQu7IXVSpLgIHLoyjc5R1OXX5jX0q0SO3k01BBEWvNkKizTeT5ZOV835Qvmthd2WdMpztqlcJLe3GlSWtxIixM5hmxGJEf7yABBkczP+5JwQy5ZlGUr3DWumSS2d7faZLLJIkcjGNrmWCE5U7TNgbFIiQADLAOcYCCp4bmWwMlqmupGVbexuo7R3cuA4J82ZCOGAwo2jHXOa0NShjmgit4bIahNdXKeeXJEJnZA5lUORlUGAoJBwJg5By9SE3b2sDW10s0LxWybobrEcUQcfvFRWRFUMGKsMMhI+VMFqWx1g3H2+OW/W+ZJmYfZL1hJHJgNI6uW2qgTzP4woKAgJvzVWz0/VIUg+WS1tFeSC3xG9uYG2yPHKiZzNldxCMWIy2SobdVSfTfMnvUk16G+uFt3uJTZSyrHBKrAxqqjERVZT8vzAZd9x+TNazDV4r2HTDfS+cLNDP9ohlRkQQJuCsPkK43MEZSAc4w5Bqr5V3YWIv7lZb1J7hz9luMusEzOI2UbQACIyV2F1TBO0NnFU0vVnmt7+HV7xUjuAkMtsoSW03hk8uVpSSxP71AQ58tYwQPnOL+pHToLh47m8c6dbgR3EKXs0y7AykBkfCbsIF7MWlz8pVS09nNENdNgguo9Nmu92wt50rxKGgMXkxRblQ+SpZWAX5TksRisWLWIPIN7q9s14FkKQxS2zFYWYxSSM+5uQXK/KXJGEyAWar8kklo6XlxKJrWGDEk6XKuJGkkQklsKXBZcc7sqpPmMyha0ptNvI9kVvreglYl8thq9yEkVlJBVVi2qEGMDj17YrGEsfiLTLqLT9Strm7VoRBJO7Hz0QAzZRVLFQ0ZYABXAPZMCpLiHSTHJcQNGNPigEbrdPHsjt8qP3cYZnWVsNuIRSZAfmQ7g1rUH1LTUk1+P7JFNblmeC/YxtDJLGuf8AWOw3iOMER5O3JI3K6mqet27axbvvtrO6ZbaIvPbyLJKDKhj/AHg2nkuECqhVW37gRkNHY01p7F/7O+23EUc8wltZJGdYvKIBBXJLE/u/MVFOSGQMcFwtGaOa2u1vJ47U2lrBJHGskS+W8TNulLQMx2GN3LMiqM+S6gqOk0hMUwsJbjK2tyFY3kRgSaE+cR5m5CUAUqF24Y7yF5UFZ9Jv7MaiTqM7xXstxc3E19b2w+0QyK5jWNso4QEA4yxyTt3kZDUyxgWzuLbTtNvLdpcJeWf+kSWkkjxsiAhSJAGwoBAIOxcgEF7kuj6RZadaTJYm/tLqNFjaGNWVAzM8TMjqTy0aAxs2SSVCkALWZMU015rsaU8N/ki1nHmTQgtCwiKkK4IRUyA27d5m7IA42ZdYmS3k1mG0GmyGZLgqtujJcLjaCAER5G3yfLnKguMkZWRZ7KLQoEl/tu9giuHlbal5BECAvyNsypym9XwcLnkkZJJq21tI+l3kNusUiWqbXtxPH+6lEwaFiQGL/dkfDDa5k+XAkK1ueWwvNNu7b7QvymHN9ZXLLDG7SRE5J8obQIxgbdy72JywxhxbpNLsIftqTXwK2+9oQAIcqqKHJU5Bkt3JIUBlUEI5O5bSxtoNMluLeO+kf96wh+zuChLSO6PvdHkKPCMvuVhj72FIDJfs1j8sQvW1B4haCK6aKFJVEmPLgbqHUTLgodqhdwMgGTVe9aHyoLzV7W0uHhl8+7urcTTshZ/KE2SGBjb5cMWj+4AXwKdAEkijhMKsSd5i8gqkjKwIhikEJXywySyBUUgkJ3yopiey028t9Se0spZMPFJ5ke2a1k2bvLDZYM2FYnIRyS2AJCwqWaW00O8vrcGO2VhC6TXMZVXVVtwEMX+sMYYOpQ7mIYl8snzOurCe41Z3e7095XnF/J500hhnXIURxohxKWkRxtwS/l5U/NVnw893PDqUlnL9qudSicXk8qs3KbQsex2aTYqSgMVQYUYB6SBbvzZGsp0nsJ9PllJlu0kZFtojCvyN5bkRpglCu4oCATuJwOc8S6JcX+sy3WoziK6lyzG9eaEyDcdrIqwDA24zuCtvD5HStrxks1jpjhLy6ea2lvhDctKVlUwSqiksuNxIcElsnKLjAGDpal4asNO1XUbLM1wsZRnkmfDyuGjjR3K7QSqyOBgAHJ3BsnOTq00kuj3dvcSPPbW8xCQM5RMLbXBUfIQQAbVOBjO5s5wu3oPDFgZ7O/kju5rcXFhZ3boiROCzAkAl0YsqbsKGJwAOuBWjceHLSPR7TUYJJoLhmimBj27V3MYQuCpDKiOQobPQZzznH8PXLahcG1eOKGLzbKdFhjCrEXtnuGCr90fvMnOM9DncqlaEGo3C6RqdzKVuGhC6e6zDcs8ZupIwZF6MygZU8bTnHBIrVeGPUde1C1uVJTTZdPghMTGFmS6jHnBymN2TyPT8TnCh0a1W1tb3LlbjShctbNgxBhbQTYAIztJIUgk5VV7qGEXh3xZqus6hp7eZHZzyR3V001snzEllQqQ+5ShCpwRxsXGMVpW+qzG50NNkQ/tDS4nmwDgYheVQq52qFZBtwMjLHOWYmqq3dvYNqlvqd5BcofMXyiqKGMt0hOAuCMR5APA3NgAHAyLrx/qsMzIYLdjvkyyvNFuPmNkkRyKCScknHU+mAP/Z;" parent="9gpe9vuKUnpZQJcM8tMO-3" vertex="1">
          <mxGeometry y="30" width="100" height="100" as="geometry" />
        </mxCell>
        <mxCell id="wrDUq9keBcSm02boVZTw-32" value="&lt;font style=&quot;font-size: 30px&quot;&gt;Noise&lt;/font&gt;" style="text;html=1;strokeColor=none;fillColor=none;align=center;verticalAlign=middle;whiteSpace=wrap;rounded=0;shadow=1;labelBackgroundColor=#ffffff;" parent="9gpe9vuKUnpZQJcM8tMO-3" vertex="1">
          <mxGeometry x="30" width="40" height="20" as="geometry" />
        </mxCell>
        <mxCell id="9gpe9vuKUnpZQJcM8tMO-4" value="&lt;span style=&quot;font-size: 30px&quot;&gt;Label [8]&lt;br&gt;&lt;/span&gt;" style="text;html=1;strokeColor=none;fillColor=none;align=center;verticalAlign=middle;whiteSpace=wrap;rounded=0;shadow=0;labelBackgroundColor=none;" vertex="1" parent="1">
          <mxGeometry x="12" y="374" width="122" height="20" as="geometry" />
        </mxCell>
        <mxCell id="9gpe9vuKUnpZQJcM8tMO-17" style="edgeStyle=orthogonalEdgeStyle;rounded=0;orthogonalLoop=1;jettySize=auto;html=1;exitX=0.5;exitY=1;exitDx=0;exitDy=0;entryX=0.006;entryY=0.573;entryDx=0;entryDy=0;entryPerimeter=0;" edge="1" parent="1" source="9gpe9vuKUnpZQJcM8tMO-10" target="wrDUq9keBcSm02boVZTw-25">
          <mxGeometry relative="1" as="geometry" />
        </mxCell>
        <mxCell id="9gpe9vuKUnpZQJcM8tMO-10" value="" style="shape=partialRectangle;whiteSpace=wrap;html=1;bottom=1;right=1;left=1;top=0;fillColor=none;routingCenterX=-0.5;shadow=0;labelBackgroundColor=none;direction=north;strokeColor=#009900;strokeWidth=3;" vertex="1" parent="1">
          <mxGeometry x="699" y="294" width="60" height="120" as="geometry" />
        </mxCell>
        <mxCell id="9gpe9vuKUnpZQJcM8tMO-19" value="&lt;span style=&quot;font-size: 30px&quot;&gt;Label [2, 3, 4]&lt;br&gt;&lt;/span&gt;" style="text;html=1;strokeColor=none;fillColor=none;align=center;verticalAlign=middle;whiteSpace=wrap;rounded=0;shadow=0;labelBackgroundColor=none;" vertex="1" parent="1">
          <mxGeometry x="496.5" y="181" width="200" height="20" as="geometry" />
        </mxCell>
        <mxCell id="9gpe9vuKUnpZQJcM8tMO-25" style="edgeStyle=orthogonalEdgeStyle;rounded=0;orthogonalLoop=1;jettySize=auto;html=1;exitX=0.5;exitY=1;exitDx=0;exitDy=0;entryX=0.01;entryY=0.416;entryDx=0;entryDy=0;entryPerimeter=0;" edge="1" parent="1" source="9gpe9vuKUnpZQJcM8tMO-20" target="wrDUq9keBcSm02boVZTw-25">
          <mxGeometry relative="1" as="geometry" />
        </mxCell>
        <mxCell id="9gpe9vuKUnpZQJcM8tMO-20" value="" style="shape=partialRectangle;whiteSpace=wrap;html=1;bottom=1;right=1;left=1;top=0;fillColor=none;routingCenterX=-0.5;shadow=0;labelBackgroundColor=none;direction=north;strokeColor=#009900;strokeWidth=3;" vertex="1" parent="1">
          <mxGeometry x="699" y="77" width="60" height="120" as="geometry" />
        </mxCell>
        <mxCell id="9gpe9vuKUnpZQJcM8tMO-21" value="&lt;span style=&quot;font-size: 30px&quot;&gt;Label [8]&lt;br&gt;&lt;/span&gt;" style="text;html=1;strokeColor=none;fillColor=none;align=center;verticalAlign=middle;whiteSpace=wrap;rounded=0;shadow=0;labelBackgroundColor=none;" vertex="1" parent="1">
          <mxGeometry x="574.5" y="400" width="122" height="20" as="geometry" />
        </mxCell>
      </root>
    </mxGraphModel>
  </diagram>
</mxfile>
